<svg width="245" height="32" viewBox="0 0 245 32" fill="none" xmlns="http://www.w3.org/2000/svg">
<path d="M197.994 15.9924C197.994 21.0916 197.994 26.1859 197.994 31.285C197.994 31.4416 197.994 31.5982 197.994 31.7548C197.994 31.9751 197.849 32.0044 197.673 31.9995C197.508 31.9995 197.342 31.9995 197.337 31.7695C197.337 31.6521 197.337 31.5346 197.337 31.4172C197.337 21.1454 197.337 10.8737 197.337 0.601918C197.337 0.52362 197.342 0.445321 197.337 0.367023C197.317 0.137022 197.377 0 197.658 0C197.924 0 198.009 0.102766 197.999 0.352342C197.984 0.704684 197.999 1.05703 197.999 1.40448C197.999 6.26875 197.999 11.1281 197.999 15.9924H197.994Z" fill="#1D1D1B" fill-opacity="0.45"/>
<path d="M231.039 2.86791C230.373 2.89611 229.694 2.75514 229.042 3.00418C228.423 3.23913 227.819 3.49758 227.456 4.09435C227.437 4.13664 227.418 4.17893 227.399 4.22122C227.446 4.22122 227.493 4.22122 227.54 4.22122C229.906 3.46468 231.398 4.56895 232.083 5.80009C232.153 5.92696 232.323 6.08673 232.215 6.1948C232.116 6.29818 231.974 6.11022 231.851 6.05383C230.841 5.55574 229.812 5.39127 228.749 5.86117C228.641 5.90816 228.466 5.93636 228.485 6.10552C228.485 6.13841 228.678 6.15251 228.782 6.17601C230.048 6.42035 230.949 7.09231 231.351 8.34225C231.389 8.45972 231.521 8.61949 231.412 8.70407C231.299 8.79805 231.2 8.61949 231.101 8.5537C230.241 7.97572 229.292 7.74547 228.258 7.83005C228.135 7.83945 228.013 7.86295 227.89 7.88174C227.937 8.04151 228.098 8.01801 228.206 8.05561C229.221 8.39863 229.812 9.12228 230.128 10.1091C230.161 10.2124 230.26 10.344 230.166 10.4192C230.067 10.4991 229.972 10.3581 229.887 10.3017C228.919 9.67206 227.852 9.44181 226.71 9.4794C226.374 9.4888 226.256 9.60628 226.256 9.9493C226.266 13.497 226.266 17.0401 226.256 20.5878C226.256 20.8933 226.337 21.0013 226.658 21.0436C227.238 21.1141 227.8 21.2786 228.301 21.6075C228.485 21.7297 228.551 21.8096 228.296 21.9411C227.342 22.4298 226.384 22.9185 225.496 23.52C225.336 23.6281 225.236 23.5858 225.099 23.4965C224.25 22.9373 223.352 22.4627 222.446 22.0022C222.115 21.8378 222.106 21.7203 222.432 21.537C222.918 21.2645 223.437 21.1047 223.98 21.0436C224.306 21.006 224.377 20.8745 224.377 20.5831C224.368 17.0542 224.368 13.5299 224.377 10.001C224.377 9.59688 224.231 9.4935 223.848 9.4841C222.762 9.45591 221.752 9.68146 220.826 10.25C220.718 10.3158 220.52 10.4286 220.496 10.4051C220.383 10.2782 220.477 10.1279 220.529 9.99159C220.869 9.06119 221.459 8.37514 222.432 8.05561C222.545 8.01801 222.701 8.04151 222.758 7.89114C222.635 7.87234 222.512 7.84885 222.389 7.83475C221.379 7.74547 220.444 7.95693 219.589 8.51141C219.481 8.58189 219.358 8.77925 219.235 8.66648C219.131 8.5725 219.249 8.38924 219.301 8.24827C219.726 7.05472 220.609 6.41566 221.827 6.17131C221.927 6.15251 222.092 6.2136 222.12 6.09142C222.153 5.93166 221.964 5.89407 221.856 5.84708C220.741 5.38188 219.684 5.56044 218.659 6.12432C218.57 6.17131 218.485 6.31228 218.381 6.2183C218.348 6.1901 218.428 6.02094 218.47 5.92696C219.259 4.3293 220.978 3.63385 222.833 4.15544C222.956 4.18833 223.116 4.3152 223.197 4.20243C223.267 4.09905 223.116 3.97218 223.022 3.8782C222.139 3.00888 221.077 2.70815 219.859 2.89611C219.759 2.9102 219.665 2.9243 219.566 2.9384C219.646 2.85851 219.712 2.76923 219.802 2.70815C221.195 1.78714 222.64 1.64617 224.117 2.4685C224.471 2.66585 224.528 2.62356 224.547 2.23825C224.58 1.53809 224.778 0.875535 225.104 0.250569C225.156 0.156589 225.218 0.0109196 225.293 0.00152159C225.416 -0.0172744 225.444 0.142492 225.496 0.236472C225.86 0.889632 226.015 1.59918 226.086 2.33223C226.115 2.62826 226.162 2.66585 226.436 2.51079C228.041 1.59448 229.571 1.78244 231.02 2.87731L231.034 2.86791H231.039Z" fill="#1D1D1B" fill-opacity="0.65"/>
<path d="M210.151 19.1171C216.044 19.305 220.581 21.4008 224.863 24.1873C225.222 24.4175 225.439 24.4175 225.794 24.1873C228.962 22.1197 232.305 20.414 236.044 19.6151C238.457 19.0983 240.893 18.9009 243.334 19.4507C243.565 19.5024 243.825 19.5071 244 19.7138C243.783 19.7044 243.565 19.6903 243.353 19.6856C238.938 19.587 234.816 20.7382 230.879 22.6319C229.467 23.3086 228.131 24.1168 226.823 24.972C226.431 25.2257 226.483 25.3385 226.837 25.5453C227.21 25.7661 227.545 26.0434 227.899 26.2924C228.518 26.7294 228.579 26.7153 228.971 26.0716C229.155 25.7708 229.363 25.503 229.779 25.6017C230.024 25.6581 230.246 25.7661 230.345 26.0199C230.444 26.2736 230.274 26.4428 230.123 26.612C229.714 27.0599 229.78 27.4484 230.321 27.7773C230.836 28.0874 231.36 28.3882 231.861 28.7218C232.385 29.0742 232.89 29.422 233.551 29.0319C233.65 28.9755 233.834 28.9474 233.915 29.0695C233.995 29.1964 233.882 29.328 233.797 29.422C233.499 29.7603 233.206 30.108 232.881 30.4134C232.47 30.7988 232.007 30.6766 231.568 30.4416C230.737 29.9905 230 29.4032 229.226 28.8675C228.647 28.4665 228.065 28.4555 227.479 28.8346C227.248 28.9849 226.998 29.0695 226.728 28.9709C226.497 28.8863 226.266 28.7782 226.228 28.4916C226.19 28.2096 226.412 28.1109 226.61 27.9982C227.493 27.5048 227.498 27.4907 226.676 26.9221C226.218 26.6026 225.798 25.9776 225.298 26.0387C224.807 26.0951 224.377 26.6401 223.919 26.9738C223.409 27.3403 223.428 27.6692 223.976 27.9606C224.221 28.0921 224.561 28.2002 224.42 28.562C224.273 28.938 223.924 29.0601 223.532 28.9896C223.305 28.9474 223.116 28.8064 222.956 28.6466C222.597 28.2801 222.238 28.3224 221.851 28.5949C221.048 29.1541 220.25 29.7227 219.424 30.2443C218.428 30.8739 218.121 30.8129 217.328 29.9717C217.29 29.9294 217.243 29.8919 217.214 29.8449C217.044 29.5911 216.62 29.3421 216.794 29.0695C216.95 28.8299 217.351 29.093 217.625 29.1917C217.857 29.2763 218.027 29.2011 218.206 29.0883C219.075 28.5573 219.934 28.017 220.812 27.5048C221.166 27.298 221.162 27.1241 220.864 26.8892C220.76 26.8093 220.666 26.7153 220.571 26.6214C220.331 26.3723 220.156 26.1139 220.477 25.8037C220.798 25.4936 221.232 25.5124 221.535 25.8131C221.785 26.0622 221.766 26.612 222.271 26.5556C222.63 26.518 222.885 26.2031 223.168 25.9964C223.513 25.7473 223.91 25.5688 224.174 25.2211C223.82 24.9767 223.471 24.723 223.107 24.488C219.509 22.1996 215.637 20.6066 211.402 19.9441C209.91 19.7091 208.404 19.5916 206.893 19.6997C206.818 19.7044 206.742 19.7138 206.667 19.7232C206.742 19.6715 206.808 19.5917 206.888 19.5682C208.168 19.2016 209.485 19.1217 210.151 19.1171Z" fill="#1D1D1B" fill-opacity="0.65"/>
<path d="M231.025 2.87261C231.039 2.9008 231.053 2.929 231.067 2.95719C231.044 2.94779 231.02 2.94309 230.997 2.9337C231.011 2.9102 231.025 2.88671 231.039 2.86321L231.025 2.86791V2.87261Z" fill="#1D1D1B" fill-opacity="0.65"/>
<path fill-rule="evenodd" clip-rule="evenodd" d="M74.8561 31.6349C75.4492 31.8942 76.0861 31.9773 76.6403 31.9627C77.2772 31.9676 77.8169 31.9382 78.3322 31.7328C79.6206 31.2143 79.8977 29.6099 78.8573 28.6854C78.5315 28.3968 78.1426 28.2207 77.7488 28.0544C77.4134 27.9125 77.073 27.7658 76.7473 27.5946C76.5431 27.487 76.3146 27.3402 76.3729 27.0614C76.4313 26.7924 76.6841 26.719 76.9175 26.6946C77.5398 26.6261 78.1523 26.6897 78.7552 26.8707C78.7932 26.8819 78.8391 26.9071 78.8877 26.9338C79.0508 27.0232 79.2443 27.1292 79.2705 26.7826C79.2791 26.6778 79.3321 26.5637 79.3858 26.448C79.5151 26.1696 79.6487 25.8819 79.1782 25.6918C78.0794 25.2467 76.9418 25.2027 75.8284 25.6331C75.1575 25.8924 74.8123 26.4255 74.788 27.1739C74.754 28.1327 75.3422 28.6169 76.0861 28.9984C76.2632 29.0884 76.4476 29.1659 76.6322 29.2434C76.9492 29.3765 77.2668 29.5099 77.5495 29.7077C77.7196 29.83 77.9092 29.967 77.8655 30.2213C77.8223 30.4771 77.604 30.5281 77.3974 30.5764L77.389 30.5784C76.6646 30.7545 75.9646 30.5784 75.2693 30.4023C75.2277 30.3918 75.1834 30.3758 75.1387 30.3597C74.9536 30.2929 74.7629 30.224 74.7394 30.5393C74.7323 30.6445 74.6846 30.7576 74.6363 30.872C74.5185 31.1509 74.3975 31.4372 74.8561 31.6349ZM84.189 28.2582L84.1889 28.2591C84.1822 28.3868 84.1754 28.5143 84.1663 28.6414L84.1712 28.6463H84.1955C84.1955 28.7356 84.1939 28.8254 84.1923 28.9156V28.9209C84.189 29.1006 84.1857 29.282 84.1955 29.4631C84.2733 30.8523 84.8858 31.6447 86.1159 31.8893C86.8208 32.0311 87.5403 32.0214 88.2502 31.8355C89.1496 31.6007 89.6892 31.0088 89.8545 30.1039C90.0393 29.1403 90.0344 28.162 89.8545 27.1984C89.6941 26.3668 89.2128 25.7799 88.396 25.5304C87.623 25.2907 86.8208 25.2858 86.0381 25.457C84.9588 25.6918 84.4142 26.313 84.2587 27.4185C84.2186 27.6971 84.2038 27.9781 84.189 28.2582ZM88.4981 28.6707H88.4787C88.4787 28.7339 88.4797 28.7977 88.4808 28.8618C88.483 28.9912 88.4852 29.122 88.4787 29.2528C88.4203 30.1969 87.9876 30.6371 87.1174 30.6518C86.2228 30.6664 85.7269 30.2115 85.6832 29.2626C85.6798 29.1889 85.6759 29.1151 85.6719 29.0411L85.6718 29.0386C85.6467 28.573 85.6214 28.1022 85.7512 27.6386C85.9457 26.9294 86.3784 26.6359 87.1903 26.6701C87.8855 26.6995 88.3182 27.0565 88.4398 27.7413C88.4754 27.9434 88.4808 28.152 88.4862 28.3598C88.4889 28.4638 88.4916 28.5679 88.4981 28.6707ZM109.992 31.948C112.51 32.129 113.434 31.2583 113.414 28.7001H113.41C113.41 28.5915 113.413 28.4828 113.416 28.3744V28.3676C113.423 28.1464 113.429 27.9254 113.41 27.7071C113.293 26.4011 112.671 25.6527 111.46 25.4326C110.789 25.3103 110.109 25.3054 109.438 25.4766C108.441 25.7261 107.862 26.3571 107.721 27.3696C107.61 28.1669 107.6 28.9642 107.697 29.7615C107.862 31.1164 108.631 31.8502 109.992 31.948ZM111.907 28.6952H111.937L111.927 28.705C111.927 28.7617 111.927 28.8189 111.928 28.8765V28.8804C111.929 28.9954 111.93 29.112 111.927 29.2283C111.898 30.1382 111.47 30.6175 110.663 30.6615C109.739 30.7105 109.253 30.3142 109.146 29.3653C109.083 28.8077 109.063 28.2403 109.204 27.6826C109.389 26.944 109.792 26.6554 110.609 26.675C111.334 26.6897 111.791 27.0614 111.898 27.7658C111.931 27.9755 111.923 28.1898 111.915 28.4056C111.911 28.5019 111.907 28.5986 111.907 28.6952ZM56.7088 27.8781L56.7088 27.8813C56.708 28.1426 56.7072 28.404 56.7072 28.6658L56.7024 28.6609V30.9452C56.7024 31.8457 56.7024 31.8457 57.5878 31.8545L57.6456 31.8551C58.0199 31.8599 58.1463 31.7621 58.1317 31.3708C58.1039 30.6386 58.1053 29.9063 58.1068 29.1714L58.1068 29.1661C58.1071 29.0044 58.1074 28.8425 58.1074 28.6805C58.1074 28.5876 58.1171 28.4213 58.1463 28.4164C58.2642 28.3972 58.2988 28.4859 58.3316 28.5699C58.3407 28.5933 58.3497 28.6163 58.3602 28.6365C58.4382 28.7835 58.5173 28.9296 58.5964 29.0755L58.5967 29.076L58.5969 29.0765C58.8334 29.5129 59.0691 29.9481 59.2694 30.4023C59.4249 30.7545 59.6583 30.7789 59.9646 30.7643C60.0131 30.762 60.0613 30.7618 60.1089 30.7616C60.3766 30.7605 60.6245 30.7594 60.7814 30.4023C60.9987 29.9102 61.2539 29.4371 61.5087 28.9648C61.5958 28.8034 61.6828 28.642 61.7683 28.4799C61.8023 28.4164 61.8704 28.3087 61.8996 28.3136C62.0025 28.3386 61.9836 28.4106 61.966 28.478C61.9594 28.503 61.953 28.5273 61.953 28.5484C61.9487 28.8939 61.9406 29.2402 61.9324 29.5867C61.9222 30.0204 61.912 30.4542 61.9093 30.8865C61.8997 31.8651 61.9043 31.865 62.8582 31.8602L62.9011 31.8599C63.2463 31.8551 63.3678 31.767 63.3678 31.4001C63.3561 29.9329 63.3569 28.4657 63.3577 26.9985C63.3579 26.6314 63.3581 26.2644 63.3581 25.8973C63.3581 25.8727 63.3597 25.8473 63.3614 25.8215C63.3683 25.7136 63.3756 25.5996 63.2657 25.5206C62.94 25.2858 61.8169 25.5598 61.6322 25.9168C61.5091 26.1541 61.3854 26.3911 61.2617 26.628C60.9163 27.2895 60.571 27.9507 60.2417 28.6169C60.0618 28.9838 59.9646 28.9446 59.7993 28.6071C59.6678 28.3408 59.524 28.0789 59.3802 27.8169C59.1199 27.3426 58.8592 26.8677 58.6714 26.3668C58.3797 25.5695 57.8838 25.3788 57.1205 25.4668C56.7948 25.5011 56.6975 25.5891 56.7024 25.9119C56.7128 26.5686 56.7108 27.2228 56.7088 27.8781ZM54.6972 29.4019C54.6983 29.1568 54.6993 28.9115 54.6993 28.6658H54.7042V25.9706C54.7042 25.9369 54.7069 25.9019 54.7095 25.8667C54.7189 25.7435 54.7285 25.6168 54.6264 25.5255C54.3736 25.2956 53.1776 25.5402 53.0172 25.8435C52.8297 26.203 52.6431 26.5641 52.4562 26.9255C52.1779 27.4639 51.8992 28.003 51.617 28.5386C51.5997 28.571 51.5858 28.6097 51.5718 28.649C51.5305 28.7641 51.4874 28.8846 51.3496 28.8664C51.2685 28.8573 51.1915 28.7011 51.1343 28.5848L51.1211 28.5582C51.0166 28.3587 50.9084 28.1607 50.8002 27.9627C50.5158 27.4421 50.2309 26.9208 50.0126 26.3717C49.7258 25.6429 49.3028 25.3739 48.5249 25.457C48.102 25.5011 48.0242 25.6331 48.0242 26.0147C48.0346 27.1793 48.0326 28.3463 48.0306 29.5124V29.547C48.0298 30.01 48.0291 30.473 48.0291 30.9355C48.0291 31.3907 48.0291 31.617 48.1417 31.7312C48.253 31.8442 48.4744 31.8475 48.9148 31.8542L48.9722 31.8551C49.3806 31.8648 49.5119 31.7425 49.4924 31.3317C49.4652 30.6439 49.4629 29.9593 49.4605 29.2728V29.256C49.46 29.089 49.4594 28.9213 49.4584 28.7539C49.4535 28.6609 49.4633 28.5044 49.507 28.4897C49.6286 28.4503 49.6679 28.5445 49.7041 28.6312C49.7128 28.652 49.7213 28.6723 49.7307 28.6903C49.8585 28.9315 49.9839 29.1735 50.1092 29.4153L50.1094 29.4158C50.289 29.7623 50.4683 30.1085 50.6544 30.4512C50.9023 30.9061 51.8358 30.9012 52.0837 30.4414C52.2698 30.0987 52.4491 29.7526 52.6287 29.406L52.6289 29.4056C52.7542 29.1637 52.8796 28.9217 53.0075 28.6805C53.0512 28.5973 53.1339 28.4702 53.1825 28.48C53.3074 28.5028 53.2938 28.6027 53.2817 28.692C53.2782 28.7174 53.2749 28.742 53.2749 28.7637C53.2728 29.0655 53.268 29.3665 53.2633 29.6674L53.2632 29.668C53.2569 30.0689 53.2505 30.4696 53.2505 30.8719C53.2481 31.3684 53.2469 31.6119 53.3674 31.7323C53.4831 31.848 53.7111 31.8502 54.1582 31.8545L54.2132 31.8551C54.5973 31.8599 54.7188 31.7474 54.7091 31.361C54.6914 30.7066 54.6943 30.0548 54.6972 29.4019ZM97.3173 28.6805C97.3173 28.9322 97.3157 29.1835 97.3141 29.4346C97.3102 30.0619 97.3062 30.6882 97.327 31.317C97.3367 31.7034 97.2444 31.8257 96.8262 31.8697C95.9949 31.9529 95.4747 31.6887 95.0712 30.9257C94.6938 30.2159 94.2421 29.5474 93.7906 28.8789L93.7903 28.8785C93.6195 28.6257 93.4487 28.3729 93.282 28.118L93.2755 28.1075C93.2263 28.0281 93.1489 27.9032 93.107 27.9125C92.988 27.9387 93.0027 28.0336 93.0162 28.1206C93.0203 28.1473 93.0244 28.1733 93.0244 28.1962C93.027 28.3844 93.0294 28.5728 93.0317 28.7612C93.0422 29.6062 93.0527 30.4526 93.0924 31.2925C93.1119 31.723 93.0098 31.9186 92.5577 31.8502C92.4264 31.8306 92.2854 31.8306 92.1493 31.8502C91.7457 31.904 91.6193 31.7474 91.6242 31.3366C91.6436 29.561 91.6436 27.7854 91.6242 26.0098C91.6242 25.6136 91.7166 25.5011 92.1298 25.4619C92.9271 25.3934 93.4522 25.6087 93.846 26.3668C94.1852 27.0213 94.6024 27.6377 95.0198 28.2544C95.1826 28.4951 95.3456 28.7358 95.5039 28.9789C95.5742 29.0868 95.6585 29.1877 95.7422 29.2881C95.78 29.3333 95.8177 29.3784 95.8539 29.424C95.9748 29.2917 95.9553 29.1385 95.9361 28.9873C95.929 28.9317 95.922 28.8763 95.922 28.8224C95.9122 27.8685 95.8977 26.9098 95.849 25.956C95.8296 25.5695 95.9414 25.4619 96.3255 25.4668L96.3813 25.4674C96.8399 25.4717 97.0726 25.4739 97.1907 25.592C97.3124 25.7136 97.3124 25.9582 97.3124 26.4549V28.6805H97.3173ZM6.3397 28.6658C6.32998 28.2207 6.32512 27.7756 6.40777 27.3256C6.59251 26.2837 7.18564 25.6576 8.21147 25.4473C8.86294 25.3152 9.529 25.3103 10.1756 25.4375C11.2938 25.6625 11.8918 26.3277 12.0425 27.4576C12.1543 28.2941 12.1592 29.1305 12.0279 29.9621C11.8772 30.9404 11.3376 31.5909 10.3604 31.8404C9.66999 32.0165 8.9699 32.0214 8.27953 31.8942C7.07869 31.6692 6.46125 30.9208 6.3397 29.605C6.32027 29.3998 6.32673 29.1924 6.3332 28.9843C6.33645 28.88 6.3397 28.7752 6.3397 28.6707V28.6658ZM7.83712 28.6071C7.83712 28.6986 7.83495 28.7901 7.83278 28.8814C7.82846 29.0635 7.82416 29.2448 7.83712 29.424C7.90518 30.1822 8.33301 30.6028 9.05741 30.6518C9.90335 30.7105 10.3701 30.3925 10.55 29.6148C10.6861 29.018 10.6812 28.4115 10.5743 27.8196C10.4187 26.9489 9.95683 26.6212 9.04769 26.675C8.29898 26.719 7.87115 27.1886 7.81767 28.025C7.81117 28.1559 7.81336 28.2867 7.81553 28.416C7.8166 28.4801 7.81767 28.5439 7.81767 28.6071H7.83712ZM46.3615 28.705V28.8224C46.4879 31.4099 45.1169 32.2904 42.4721 31.8697C41.4852 31.7132 40.8677 31.0871 40.6976 30.1039C40.5274 29.1012 40.5079 28.0837 40.7316 27.0859C40.9212 26.2299 41.4754 25.7016 42.3262 25.4864C43.0166 25.3103 43.7167 25.3103 44.4071 25.4326C45.5739 25.638 46.2302 26.3962 46.3323 27.5946C46.3517 27.839 46.3453 28.0855 46.3388 28.3327C46.3356 28.4565 46.3323 28.581 46.3323 28.705H46.3615ZM44.8641 28.705H44.8446C44.8446 28.6121 44.8475 28.5193 44.8505 28.4266C44.8568 28.2263 44.863 28.0267 44.8398 27.8294C44.7474 27.0565 44.305 26.675 43.5076 26.6701C42.6957 26.6603 42.2533 27.0174 42.1269 27.7805C42.0394 28.3185 42.0248 28.8615 42.1075 29.4044C42.2387 30.3045 42.652 30.6762 43.5417 30.6518C44.3633 30.6322 44.796 30.2066 44.8641 29.3457C44.8738 29.206 44.8705 29.0642 44.8673 28.9216V28.9206C44.8657 28.849 44.8641 28.7767 44.8641 28.705ZM149.675 25.4045C149.631 25.4073 149.586 25.4102 149.542 25.413H148.205C147.884 25.413 147.729 25.5108 147.729 25.8875C147.748 27.7413 147.743 29.5903 147.729 31.4442C147.724 31.7768 147.84 31.8893 148.152 31.9089L148.355 31.921C149.197 31.9719 150.047 32.0231 150.884 31.9235C152.352 31.7474 153.081 30.9061 153.12 29.4191C153.135 28.8517 153.135 28.2843 153.106 27.7218C153.042 26.4549 152.406 25.7212 151.166 25.4473C150.675 25.3394 150.175 25.3719 149.675 25.4045ZM150.266 30.6566C149.527 30.686 149.158 30.3354 149.158 29.605V28.6022C149.158 28.4579 149.159 28.3132 149.161 28.1682V28.1485C149.164 27.7938 149.167 27.4374 149.153 27.081C149.138 26.7679 149.265 26.6603 149.557 26.6701C149.669 26.672 149.781 26.6703 149.893 26.6685C150.073 26.6657 150.252 26.663 150.432 26.675C151.088 26.7239 151.458 27.0565 151.603 27.6973C151.735 28.2745 151.735 28.8615 151.642 29.4436C151.506 30.28 151.107 30.6224 150.266 30.6566ZM115.087 28.6267L115.087 25.8581C115.087 25.6406 115.086 25.4419 115.393 25.4277C115.59 25.4187 115.786 25.4068 115.983 25.3949C116.852 25.3425 117.722 25.29 118.583 25.4815C119.55 25.6967 119.973 26.2005 120.031 27.1886C120.085 28.0935 120.114 29.0131 119.171 29.5659C118.985 29.6734 119.06 29.7843 119.128 29.8852C119.144 29.9081 119.159 29.9305 119.171 29.9523C119.438 30.4512 119.706 30.9452 119.988 31.4344C120.143 31.7083 120.153 31.8306 119.774 31.8502L119.72 31.8528C118.577 31.9092 118.559 31.9101 117.989 30.7202L117.966 30.6711C117.752 30.2202 117.558 29.81 116.915 29.9327C116.662 29.9816 116.526 30.0208 116.545 30.3045C116.554 30.4245 116.549 30.5456 116.545 30.6659C116.539 30.82 116.533 30.973 116.555 31.1213C116.648 31.7279 116.409 31.8942 115.826 31.8502C115.709 31.8418 115.61 31.8376 115.527 31.8341C115.317 31.8252 115.208 31.8205 115.152 31.7635C115.092 31.7023 115.093 31.5808 115.096 31.3288V31.325C115.096 31.2534 115.097 31.1714 115.097 31.0773V28.6218L115.087 28.6267ZM116.512 28.0092C116.511 28.3847 116.51 28.5489 116.591 28.6193C116.654 28.6741 116.765 28.6722 116.964 28.6689C117.07 28.6671 117.201 28.6649 117.362 28.6707C118.237 28.7001 118.548 28.4261 118.553 27.712C118.553 26.9196 118.247 26.6701 117.25 26.6701C116.761 26.6701 116.516 27.0044 116.516 27.6729H116.511C116.512 27.8005 116.512 27.9119 116.512 28.0092ZM124.733 25.8484V28.5925C124.733 28.8476 124.736 29.1032 124.739 29.359V29.3713C124.748 29.989 124.756 30.6077 124.718 31.2241C124.689 31.767 124.883 31.8746 125.374 31.8502L125.458 31.8461C125.799 31.8294 125.973 31.8209 126.061 31.7293C126.152 31.6346 126.152 31.451 126.152 31.0773V30.6664C126.152 30.2809 126.152 30.0913 126.246 30.0018C126.337 29.9152 126.517 29.9222 126.869 29.936L126.911 29.9376C127.173 29.9474 127.285 30.0648 127.387 30.2751C127.496 30.5043 127.612 30.7307 127.728 30.9573L127.728 30.9583C127.825 31.1471 127.921 31.3362 128.014 31.5273C128.107 31.7132 128.199 31.8599 128.442 31.8453C128.792 31.8306 129.142 31.8355 129.492 31.8453C129.745 31.8551 129.803 31.7719 129.672 31.542C129.385 31.0333 129.108 30.5246 128.836 30.0061C128.822 29.9808 128.805 29.9547 128.787 29.928L128.787 29.9272L128.786 29.9262L128.785 29.9251C128.706 29.808 128.62 29.6796 128.816 29.561C129.701 29.0333 129.679 28.1871 129.657 27.3414C129.655 27.2855 129.654 27.2297 129.653 27.1739C129.633 26.3424 129.205 25.7456 128.418 25.5304C127.502 25.2802 126.573 25.3363 125.645 25.3925C125.43 25.4055 125.215 25.4185 125 25.4277C124.73 25.4415 124.731 25.6239 124.732 25.8123L124.733 25.8484ZM126.152 27.4234C126.152 26.9212 126.402 26.6701 126.901 26.6701H126.906C127.791 26.6701 128.107 26.8804 128.189 27.5163C128.282 28.2452 127.966 28.6218 127.227 28.6658C126.51 28.7082 126.152 28.3723 126.152 27.6582V27.4234ZM3.75135e-06 28.6609L1.87142e-06 25.8967C-6.47134e-05 25.6514 -0.000124137 25.4324 0.335463 25.4228C0.552435 25.4148 0.769608 25.4026 0.986819 25.3903C1.8355 25.3425 2.68475 25.2946 3.52476 25.5011C4.44363 25.7261 4.86174 26.2592 4.91521 27.2033C4.96383 28.0984 4.97842 28.9838 4.09358 29.5463C3.8916 29.6744 3.97118 29.8145 4.04938 29.9521C4.05773 29.9668 4.06616 29.9817 4.07413 29.9963C4.12563 30.0903 4.17694 30.1844 4.22821 30.2783C4.43831 30.6633 4.64774 31.0471 4.8666 31.4246L4.87031 31.431C5.02315 31.6953 5.08196 31.7969 4.65754 31.8697C3.59282 32.0605 3.08234 31.5322 2.81008 30.6175C2.64479 30.0599 2.28988 29.8593 1.72106 29.9474C1.50228 29.9816 1.41477 30.0403 1.42449 30.2604C1.42838 30.4171 1.42604 30.5737 1.42371 30.7301C1.42021 30.9643 1.41672 31.1978 1.43421 31.4295C1.45852 31.767 1.32726 31.8502 1.00152 31.8551L0.972563 31.8555C0.492113 31.8626 0.251399 31.8662 0.1308 31.747C0.0097096 31.6273 0.00971539 31.3839 0.00972699 30.8961L0.00972721 28.656L3.75135e-06 28.6609ZM1.41963 27.668C1.41963 28.3397 1.69837 28.6756 2.25585 28.6756C3.13582 28.6756 3.42266 28.4359 3.42266 27.6875C3.42266 26.9049 3.13096 26.6701 2.15861 26.6701C1.66596 26.6701 1.41963 27.0011 1.41963 27.6631V27.668ZM160.454 29.4364L160.454 29.4271C160.456 29.185 160.457 28.9427 160.457 28.7001L160.447 28.6952V26.4109C160.447 25.9321 160.447 25.6961 160.329 25.5797C160.215 25.4665 159.99 25.4666 159.545 25.4668L159.489 25.4668C159.149 25.4668 159.003 25.5451 159.022 25.9217C159.042 26.2361 159.039 26.5522 159.036 26.869V26.8764C159.033 27.1042 159.031 27.3323 159.037 27.5604C159.047 27.8538 158.974 27.9908 158.653 27.981C157.977 27.9615 157.296 27.9663 156.616 27.981C156.339 27.9859 156.241 27.893 156.251 27.6142C156.258 27.3675 156.255 27.1208 156.253 26.8746V26.867C156.25 26.5689 156.248 26.2715 156.261 25.9755C156.275 25.6136 156.193 25.413 155.789 25.4766C155.653 25.4962 155.512 25.4962 155.381 25.4766C154.953 25.413 154.817 25.5646 154.822 26.0147C154.851 27.7511 154.861 29.4876 154.822 31.2241C154.812 31.7572 154.973 31.8795 155.473 31.8551L155.57 31.8503C155.906 31.8342 156.078 31.8259 156.165 31.7356C156.256 31.6417 156.256 31.4592 156.256 31.0871V30.5001C156.256 29.3213 156.256 29.3066 157.442 29.3262C157.595 29.3291 157.761 29.3096 157.927 29.2901C158.321 29.2438 158.717 29.1973 158.949 29.4485C159.16 29.6743 159.117 30.0583 159.073 30.4411C159.054 30.6053 159.035 30.7696 159.037 30.9208L159.037 30.9479C159.044 31.4013 159.048 31.6282 159.162 31.7417C159.277 31.8553 159.504 31.8553 159.957 31.8551L160.014 31.8551C160.374 31.8551 160.476 31.7474 160.466 31.3904C160.449 30.7397 160.452 30.089 160.454 29.4364ZM145.628 31.8502C145.186 31.9627 144.816 31.811 144.729 31.2094C144.685 30.9061 144.476 30.867 144.214 30.8719L144.097 30.8753C143.63 30.8892 143.163 30.9031 142.697 30.867C142.259 30.8327 142.016 30.9648 141.904 31.4099C141.817 31.7719 140.606 32.0605 140.319 31.811C140.219 31.7229 140.26 31.619 140.297 31.5242L140.303 31.5089L140.31 31.4931C140.728 30.3955 141.148 29.2995 141.568 28.2043L141.574 28.1891L141.584 28.1617L141.585 28.1597C141.891 27.3613 142.197 26.5632 142.502 25.7652C142.585 25.55 142.711 25.4619 142.94 25.4815C143.173 25.4962 143.406 25.5059 143.64 25.4815C143.98 25.4473 144.145 25.5695 144.277 25.907C144.754 27.1678 145.248 28.4212 145.742 29.6742L145.743 29.6772C145.949 30.1976 146.154 30.718 146.358 31.2387C146.52 31.6464 146.387 31.8502 145.959 31.8502H145.628ZM142.828 28.793C142.805 28.8582 142.788 28.9194 142.776 28.9765C142.688 29.3824 142.884 29.5854 143.363 29.5854L143.363 29.5903C143.389 29.5903 143.415 29.5892 143.441 29.5881C143.492 29.586 143.544 29.5838 143.596 29.5903C143.856 29.6272 144.012 29.5982 144.06 29.4781C144.097 29.3917 144.075 29.2563 143.99 29.062C143.862 28.7659 143.755 28.4597 143.649 28.1537C143.591 27.9846 143.532 27.8156 143.47 27.6484C143.453 27.6002 143.423 27.5569 143.394 27.5133C143.382 27.4949 143.369 27.4765 143.358 27.4576C143.346 27.4747 143.334 27.4914 143.321 27.508C143.288 27.5534 143.254 27.5983 143.236 27.6484C143.143 27.9017 143.053 28.1551 142.964 28.4084L142.963 28.4111C142.918 28.5384 142.873 28.6657 142.828 28.793ZM23.6037 31.2143C23.6912 31.8159 24.0704 31.9578 24.508 31.8502V31.8551C24.5885 31.8551 24.6552 31.853 24.7133 31.8512C24.8097 31.8482 24.8825 31.8459 24.9553 31.8551C25.4463 31.9235 25.4317 31.723 25.2761 31.3415C24.5566 29.5512 23.8517 27.7609 23.171 25.956C23.0252 25.5744 22.8404 25.4326 22.4515 25.4815C22.2424 25.5059 22.0236 25.4962 21.8097 25.4815C21.5812 25.4668 21.4548 25.5549 21.3722 25.7701C20.8617 27.1178 20.3465 28.463 19.8315 29.8075C19.6156 30.3711 19.3998 30.9345 19.1844 31.498C19.1455 31.5958 19.0823 31.7866 19.2038 31.8012C19.622 31.8453 20.0546 31.8551 20.4776 31.8355C20.7054 31.8276 20.7428 31.6378 20.777 31.4645C20.7851 31.4233 20.7931 31.383 20.8034 31.3463C20.9054 30.9991 21.0756 30.8425 21.4646 30.867C21.9672 30.9031 22.4698 30.8892 22.9725 30.8753L23.0981 30.8719C23.3606 30.867 23.56 30.911 23.6037 31.2143ZM142.963 28.4159C142.918 28.5434 142.873 28.6709 142.828 28.7979C142.873 28.6707 142.918 28.543 142.963 28.4153L142.963 28.4159ZM70.6458 31.9627C69.9992 31.9773 69.3721 31.8844 68.7643 31.6496C68.2746 31.4622 68.3941 31.1863 68.5118 30.9142C68.56 30.8027 68.608 30.6919 68.6136 30.5882C68.6335 30.2164 68.8287 30.2889 69.0268 30.3626C69.0711 30.3791 69.1155 30.3956 69.1581 30.4072C69.8339 30.5882 70.5194 30.7349 71.2244 30.5979C71.4529 30.5539 71.7105 30.5001 71.764 30.2262C71.8175 29.9523 71.6036 29.7958 71.3994 29.6881C71.1709 29.5695 70.939 29.4579 70.7072 29.3464C70.3275 29.1636 69.9483 28.9812 69.586 28.7685C68.7595 28.2794 68.4824 27.5261 68.7352 26.6799C68.9151 26.0831 69.3332 25.7212 69.8971 25.5549C70.9278 25.2467 71.9634 25.2858 72.9843 25.6478C73.5107 25.8362 73.3876 26.1382 73.2679 26.4319C73.2229 26.5424 73.1784 26.6516 73.1691 26.7533C73.1314 27.1476 72.9243 27.0305 72.7515 26.9329C72.7014 26.9046 72.6542 26.8779 72.6148 26.8658C71.9877 26.6897 71.3605 26.6065 70.7188 26.7141C70.5097 26.7484 70.2909 26.8169 70.2569 27.0859C70.2277 27.3207 70.3882 27.4381 70.5535 27.5457C70.8271 27.7292 71.1311 27.8496 71.4359 27.9703C71.6185 28.0426 71.8013 28.115 71.9779 28.2011C72.6489 28.524 73.208 28.9397 73.3295 29.7517C73.4656 30.6566 73.0864 31.3757 72.2453 31.7181C71.73 31.9284 71.1903 31.9627 70.6458 31.9578V31.9627ZM166.534 28.6756C166.524 30.5246 167.375 31.1067 169.091 30.3729C169.435 30.2248 169.534 30.3848 169.644 30.5617C169.664 30.595 169.685 30.6289 169.708 30.6615C170.234 31.3904 170.224 31.4295 169.378 31.7377C168.474 32.0654 167.545 32.0605 166.631 31.7915C165.746 31.5273 165.26 30.8719 165.129 29.967C165.002 29.0963 164.997 28.2158 165.129 27.3451C165.284 26.3668 165.839 25.7065 166.816 25.4913C167.822 25.2663 168.814 25.2712 169.762 25.7603C170.068 25.9168 170.175 26.0734 169.913 26.362C169.811 26.4745 169.728 26.6114 169.655 26.7484C169.495 27.0419 169.339 27.1886 169.004 26.9245C168.76 26.7386 168.435 26.6897 168.119 26.675C167.127 26.6163 166.626 27.0419 166.534 28.0348C166.521 28.1754 166.525 28.3204 166.529 28.4638C166.532 28.535 166.534 28.6059 166.534 28.6756ZM34.6013 28.324L34.6013 28.3247C34.5967 28.424 34.5922 28.5231 34.5864 28.6218L34.5815 28.6316H34.6009C34.6009 28.7134 34.5988 28.7957 34.5967 28.8784V28.8812C34.5923 29.0497 34.588 29.2198 34.6009 29.3898C34.669 30.3925 34.9267 31.3121 35.9622 31.7083C37.0318 32.1192 38.116 32.0947 39.1904 31.6398C39.6377 31.4491 39.7106 31.2876 39.4092 30.8474C39.0932 30.3925 38.8452 30.1724 38.3202 30.5148C38.1512 30.6251 37.9051 30.6404 37.6864 30.654L37.6444 30.6566C36.7207 30.7153 36.2005 30.3045 36.0984 29.3849C36.0352 28.8028 36.0206 28.2207 36.1567 27.6386C36.2977 27.0419 36.6818 26.7484 37.2603 26.6848C37.7125 26.6359 38.1792 26.6701 38.5535 26.9294C38.8987 27.1642 39.0494 27.0468 39.2099 26.7484C39.2828 26.6114 39.3654 26.4745 39.4675 26.362C39.7301 26.0782 39.6231 25.9168 39.3217 25.7554C38.6216 25.3837 37.8778 25.3396 37.1145 25.3739C35.6122 25.4424 34.8343 26.1516 34.6496 27.6337C34.6224 27.8625 34.6118 28.0937 34.6013 28.324ZM102.252 28.6071C102.252 28.3685 102.253 28.1295 102.254 27.8904C102.257 27.252 102.26 26.6125 102.242 25.9755C102.232 25.6038 102.33 25.4619 102.724 25.4717C103.769 25.4962 104.819 25.4962 105.869 25.4717C106.229 25.4619 106.365 25.5744 106.321 25.9315C106.297 26.1027 106.307 26.2837 106.321 26.4549C106.346 26.7141 106.239 26.7924 105.986 26.7875C105.732 26.7815 105.478 26.7845 105.225 26.7874C104.857 26.7917 104.489 26.796 104.124 26.7728C103.643 26.7423 103.675 27.0262 103.705 27.2891C103.709 27.3214 103.713 27.3533 103.715 27.3843C103.72 27.4472 103.711 27.5189 103.702 27.5917C103.672 27.8359 103.64 28.0928 104.104 28.074C104.367 28.0617 104.63 28.0654 104.892 28.0691C105.153 28.0727 105.415 28.0764 105.675 28.0642C106.02 28.0446 106.122 28.1767 106.088 28.4995C106.068 28.6707 106.068 28.8517 106.088 29.0229C106.117 29.3164 105.981 29.3898 105.714 29.38C105.466 29.3731 105.219 29.3748 104.972 29.3766C104.695 29.3786 104.418 29.3805 104.143 29.3702C103.822 29.3555 103.686 29.4582 103.701 29.8006C103.71 30.0507 103.707 30.3018 103.704 30.5536C103.701 30.8286 103.698 31.1048 103.71 31.3806C103.725 31.7377 103.608 31.8551 103.249 31.8453C103.088 31.8408 102.952 31.8398 102.838 31.8389C102.51 31.8363 102.36 31.8351 102.293 31.7593C102.236 31.6949 102.24 31.5763 102.247 31.3569V31.3555C102.251 31.2311 102.256 31.0743 102.252 30.8768C102.242 30.3729 102.245 29.8669 102.249 29.3616V29.348C102.25 29.0975 102.252 28.8471 102.252 28.5973V28.6071ZM181.007 28.3919C181.45 29.0474 181.751 29.7077 181.595 30.3729H181.591V31.1018C181.591 31.8453 181.591 31.8502 182.339 31.8453C182.429 31.8442 182.508 31.8445 182.577 31.8447C182.826 31.8455 182.951 31.8459 183.013 31.7835C183.075 31.7209 183.074 31.5952 183.073 31.3434C183.073 31.2694 183.072 31.1845 183.073 31.0871C183.075 31.0218 183.077 30.9558 183.08 30.8896L183.08 30.8877V30.8854C183.087 30.6998 183.095 30.5117 183.073 30.3289C183 29.6588 183.2 29.0914 183.574 28.5289C184.01 27.8779 184.41 27.2016 184.81 26.5255C184.935 26.3126 185.061 26.0996 185.188 25.8875C185.202 25.8646 185.22 25.84 185.239 25.8147L185.239 25.8143C185.332 25.6882 185.439 25.5425 185.115 25.4815C184.216 25.3103 183.837 25.4766 183.36 26.2543C183.334 26.2957 183.309 26.337 183.285 26.3783L183.285 26.3791L183.284 26.3799C183.26 26.4212 183.236 26.4625 183.21 26.5038C182.943 26.9278 182.672 27.3518 182.4 27.7758L182.399 27.7777L182.399 27.7791L182.398 27.7802C181.994 27.4378 181.751 26.9685 181.561 26.5087C181.187 25.5989 180.56 25.3494 179.646 25.4668C179.291 25.5157 179.257 25.5646 179.442 25.8581C179.65 26.1888 179.851 26.524 180.051 26.859C180.361 27.3763 180.671 27.8931 181.007 28.3919ZM15.12 30.4023C15.2756 29.7273 14.9741 29.0425 14.5171 28.3723C14.2066 27.9153 13.9233 27.4411 13.6401 26.9671C13.4444 26.6395 13.2486 26.312 13.044 25.9902C12.8204 25.6429 12.762 25.5157 13.292 25.4619C14.1331 25.3739 14.6922 25.6136 15.0179 26.4207C15.1002 26.622 15.2211 26.8063 15.3423 26.991C15.436 27.1338 15.5298 27.2769 15.6062 27.4283C15.8395 27.893 16 27.7658 16.1993 27.4038C16.2728 27.2676 16.3601 27.1376 16.4472 27.008C16.5791 26.8116 16.7104 26.6161 16.7924 26.4011C17.1084 25.5549 17.7162 25.3739 18.5281 25.4717C18.8684 25.5108 18.9316 25.5451 18.7371 25.8532C18.5143 26.2083 18.3003 26.5683 18.0863 26.9281C17.7727 27.4556 17.4592 27.9829 17.1182 28.4946C16.7098 29.1061 16.491 29.7322 16.5882 30.4659C16.6012 30.5539 16.5969 30.6463 16.5926 30.7387C16.5904 30.7849 16.5882 30.8311 16.5882 30.8768C16.5882 31.8991 16.4132 32.036 15.3825 31.8599C15.1346 31.8159 15.12 31.6839 15.12 31.498V30.4023ZM135.715 28.4897C136.138 29.1256 136.435 29.7713 136.284 30.417V30.9648C136.284 31.8358 136.289 31.8359 137.131 31.8538L137.188 31.8551C137.582 31.8648 137.757 31.7719 137.713 31.3463C137.697 31.1772 137.702 31.0057 137.708 30.8341C137.713 30.6535 137.719 30.4728 137.699 30.2947C137.626 29.6588 137.83 29.1256 138.175 28.6022C138.647 27.8841 139.085 27.1472 139.523 26.409C139.631 26.227 139.739 26.0449 139.848 25.863C139.862 25.8387 139.885 25.8127 139.909 25.7854C139.988 25.6977 140.079 25.5969 139.901 25.4962C139.498 25.2614 138.433 25.5744 138.18 25.9853C138.098 26.1199 138.014 26.2538 137.931 26.3875L137.929 26.3903L137.927 26.3936L137.925 26.3977L137.924 26.3981C137.701 26.7566 137.478 27.1142 137.271 27.4821C137.091 27.7951 136.97 27.8587 136.775 27.5017C136.7 27.3635 136.612 27.2305 136.525 27.0975C136.386 26.8868 136.247 26.676 136.158 26.4451C135.832 25.5989 135.244 25.3739 134.388 25.4619C133.892 25.5108 133.941 25.6233 134.15 25.956C134.363 26.2947 134.569 26.6374 134.776 26.9799C135.081 27.4881 135.387 27.9959 135.715 28.4897ZM176.568 25.4815C176.802 25.4815 177.035 25.4826 177.268 25.4837C177.733 25.4858 178.197 25.488 178.664 25.4815C178.96 25.4766 179.116 25.5255 179.121 25.8875L179.122 25.9426C179.136 26.7924 179.136 26.7924 178.236 26.7924C177.584 26.7924 177.259 27.1152 177.259 27.7609C177.259 28.0851 177.258 28.4094 177.257 28.7336V28.7355C177.254 29.5993 177.251 30.463 177.268 31.3268C177.278 31.7181 177.196 31.9235 176.768 31.8502C176.675 31.8355 176.573 31.8355 176.476 31.8502C175.98 31.9333 175.81 31.7621 175.829 31.2289C175.855 30.4593 175.851 29.6896 175.847 28.9199V28.9176C175.844 28.3625 175.841 27.8073 175.849 27.2522C175.849 26.9049 175.771 26.7386 175.402 26.7875C175.275 26.8038 175.144 26.7984 175.014 26.7929C174.948 26.7902 174.883 26.7875 174.818 26.7875C174.026 26.7875 173.773 26.4304 173.997 25.6674C174.059 25.4536 174.196 25.4673 174.325 25.4803C174.356 25.4834 174.386 25.4864 174.415 25.4864C174.894 25.4799 175.371 25.482 175.85 25.4842C176.089 25.4853 176.328 25.4864 176.568 25.4864V25.4815ZM28.0272 28.6239L28.0272 28.6233C28.0251 28.4226 28.023 28.2215 28.023 28.0202V26.3766C28.023 25.9231 28.023 25.698 27.911 25.5851C27.8007 25.474 27.5816 25.4718 27.1467 25.4674L27.0896 25.4668C26.7152 25.4668 26.5937 25.5646 26.5937 25.956C26.6131 27.7707 26.6131 29.5854 26.5937 31.4001C26.5888 31.7768 26.7201 31.8599 27.0653 31.8502C27.5847 31.839 28.1057 31.8406 28.6274 31.8422H28.6279C29.0191 31.8434 29.4108 31.8446 29.8024 31.8404C29.952 31.8388 30.0742 31.8429 30.1741 31.8463C30.3765 31.8531 30.4875 31.8569 30.5497 31.8034C30.625 31.7385 30.6286 31.5893 30.6365 31.2592C30.6383 31.1839 30.6403 31.0992 30.6435 31.0039C30.6581 30.5931 30.4928 30.5148 30.1379 30.5295C29.8782 30.5412 29.6173 30.5383 29.3559 30.5353C29.0741 30.5321 28.7917 30.5289 28.5092 30.5441C28.1397 30.5637 27.9939 30.4708 28.0133 30.0697C28.0373 29.5865 28.0323 29.1057 28.0272 28.6239ZM132.878 29.4753C132.875 30.1171 132.872 30.7598 132.886 31.4001C132.895 31.7474 132.798 31.8746 132.434 31.8746L132.378 31.8752C131.905 31.8799 131.665 31.8823 131.543 31.7629C131.417 31.6396 131.417 31.3864 131.417 30.8719C131.417 30.4301 131.419 29.9884 131.42 29.5467V29.5414C131.423 28.3661 131.425 27.1916 131.408 26.0196C131.403 25.6038 131.481 25.4375 131.943 25.4521L132.027 25.4547C132.449 25.4675 132.662 25.474 132.77 25.5845C132.881 25.6978 132.881 25.9206 132.881 26.3717V28.6512C132.881 28.924 132.88 29.1972 132.878 29.4706V29.4753ZM82.5101 29.4477C82.5117 29.192 82.5133 28.9362 82.5133 28.6805L82.5182 28.6756C82.5182 28.4087 82.5174 28.1419 82.5166 27.875V27.8738C82.5146 27.2068 82.5126 26.5398 82.523 25.8728C82.5279 25.5744 82.4452 25.4375 82.1341 25.4717C81.9834 25.4913 81.8229 25.4962 81.6722 25.4717C81.2152 25.4081 81.0791 25.5793 81.0888 26.044C81.1096 27.1957 81.1057 28.3499 81.1017 29.5031V29.5116C81.1001 29.9718 81.0985 30.4318 81.0985 30.8914C81.0985 31.8457 81.0985 31.8457 81.9825 31.8545L82.0369 31.8551C82.4161 31.8599 82.5328 31.7474 82.523 31.3659C82.5022 30.7265 82.5062 30.0871 82.5101 29.4477ZM171.41 28.6365C171.41 28.392 171.412 28.1474 171.413 27.9029V27.9018C171.417 27.2907 171.421 26.6796 171.4 26.0685C171.386 25.638 171.468 25.4473 171.959 25.4668L172.056 25.4711C172.433 25.4875 172.625 25.4959 172.723 25.5967C172.825 25.7014 172.825 25.9059 172.825 26.3228C172.825 26.7952 172.823 27.2677 172.822 27.7401C172.818 28.921 172.814 30.1019 172.835 31.2828C172.844 31.7621 172.689 31.8648 172.246 31.8502L172.175 31.8477C171.405 31.8215 171.4 31.8214 171.4 31.0235V28.6316L171.41 28.6365ZM66.8078 29.3969L66.8078 29.3923C66.8089 29.1487 66.8099 28.905 66.8099 28.6609L66.8051 28.6658V26.4402C66.8051 25.9566 66.8051 25.7193 66.687 25.6006C66.5733 25.4862 66.3502 25.4817 65.9122 25.4728L65.857 25.4717C65.4341 25.4619 65.3465 25.6038 65.3514 26C65.3691 27.1917 65.3662 28.3835 65.3633 29.5753C65.3622 30.0221 65.3611 30.469 65.3611 30.9159C65.3611 31.3874 65.3611 31.6222 65.478 31.7392C65.5939 31.8552 65.825 31.8552 66.2853 31.8551L66.3286 31.8551C66.7176 31.8599 66.8294 31.7377 66.8196 31.3561C66.802 30.7017 66.8049 30.0499 66.8078 29.3969ZM21.7027 28.8077C21.518 29.3262 21.7027 29.5854 22.257 29.5854C22.7788 29.5854 22.9506 29.336 22.7723 28.837C22.7334 28.7278 22.6951 28.618 22.6567 28.5083C22.58 28.2887 22.5033 28.0691 22.4223 27.8538C22.3899 27.7658 22.3445 27.6821 22.2991 27.5984C22.2764 27.5566 22.2537 27.5147 22.2327 27.4723C22.1344 27.5369 22.1067 27.637 22.0786 27.7381C22.0706 27.7671 22.0625 27.7962 22.0528 27.8245L21.7027 28.8077Z" fill="#1D1D1B" fill-opacity="0.65"/>
<path fill-rule="evenodd" clip-rule="evenodd" d="M156.744 9.33308C157.468 9.32826 157.73 9.56442 157.599 10.0849C157.546 10.3115 157.507 10.4368 157.23 10.3066C157.011 10.2054 156.768 10.2247 156.618 10.4705C156.53 10.6103 156.506 10.75 156.589 10.9043C156.686 11.0874 156.812 11.073 156.977 11.0151C157.078 10.9786 157.183 10.9535 157.286 10.9289C157.332 10.9177 157.379 10.9066 157.424 10.8946C157.449 10.8878 157.474 10.8807 157.498 10.8736C157.749 10.8009 157.963 10.7387 158.056 11.1693C158.148 11.5983 157.978 11.6465 157.638 11.6947C157.247 11.7506 156.857 11.8313 156.467 11.9121L156.467 11.9122C156.286 11.9497 156.105 11.9873 155.923 12.0224C155.915 12.0239 155.907 12.0255 155.9 12.0271L155.872 12.033C155.736 12.0625 155.597 12.0927 155.558 11.8826C155.55 11.8434 155.534 11.8012 155.518 11.7584L155.517 11.7579C155.468 11.6277 155.416 11.4924 155.573 11.42C155.802 11.3103 155.752 11.207 155.689 11.0765C155.674 11.0464 155.659 11.0148 155.646 10.9814C155.315 10.1235 155.845 9.34272 156.744 9.33308ZM101.023 17.1826C100.545 17.1834 100.067 17.1842 99.5898 17.1842L99.585 17.1745C99.1671 17.1745 98.7492 17.1739 98.3313 17.1733C97.0776 17.1715 95.8239 17.1697 94.5702 17.1842C94.1912 17.189 94.06 17.0782 94.0746 16.6926C94.0954 16.1144 94.0915 15.5387 94.0875 14.9619L94.0875 14.9591C94.0859 14.7291 94.0843 14.4989 94.0843 14.2683C94.0843 13.6922 94.0843 13.4066 93.9402 13.2651C93.7985 13.126 93.5177 13.126 92.9608 13.1261L92.9181 13.1261C92.5439 13.1261 92.4079 13.2225 92.4176 13.6081C92.4303 14.1533 92.4284 14.6973 92.4265 15.2413C92.4247 15.7359 92.4229 16.2306 92.4322 16.7263C92.4419 17.083 92.3204 17.1986 91.9657 17.1842C91.4409 17.1601 90.9161 17.1553 90.3913 17.1842C89.9977 17.2083 89.8957 17.0637 89.9054 16.6926C89.9181 16.1473 89.9162 15.6034 89.9142 15.0593C89.9125 14.5647 89.9107 14.0701 89.92 13.5743C89.9297 13.2562 89.8276 13.1454 89.5069 13.1165C88.4039 13.0152 87.296 12.9622 86.1929 13.0683C85.0219 13.1839 84.4533 13.6755 84.2541 14.6587C84.1472 15.1889 84.1083 15.7287 84.1618 16.2685C84.327 18.0035 84.9781 18.6011 86.7517 18.6011C101.32 18.6011 115.888 18.6011 130.456 18.6108C130.883 18.6108 131.019 18.5192 131.014 18.0758C130.997 16.6046 131 15.136 131.003 13.6681V13.6569C131.004 13.1088 131.005 12.5608 131.005 12.0128C131.005 10.9951 131.005 10.9951 130.056 10.9692L129.975 10.9669C129.508 10.9525 129.382 11.097 129.391 11.5501C129.409 12.5696 129.406 13.5916 129.403 14.6125V14.6172C129.402 14.9992 129.401 15.381 129.401 15.7624C129.401 16.7328 128.91 17.2035 127.929 17.1745H127.812C127.336 17.1456 127.064 16.9577 127.083 16.4227C127.103 15.9456 127.069 15.4636 127.02 14.9865C126.923 14.0225 126.437 13.396 125.567 13.1791C124.513 12.9189 123.453 12.9815 122.404 13.2659C122.18 13.3285 122.039 13.4297 121.976 13.6755C121.728 14.6732 121.539 15.6757 121.728 16.6974C121.801 17.1023 121.69 17.1842 121.301 17.1842C117.997 17.1697 114.692 17.1697 111.388 17.1842C110.999 17.1842 110.902 17.0685 110.902 16.6926C110.917 15.5108 110.915 14.3264 110.913 13.1433V13.1294C110.912 12.7393 110.912 12.3494 110.912 11.9598C110.912 11.4743 110.912 11.2331 110.79 11.1095C110.67 10.9874 110.432 10.9797 109.958 10.9644L109.887 10.9621C109.391 10.9428 109.274 11.097 109.284 11.5694C109.299 12.4152 109.297 13.2622 109.296 14.1093C109.295 14.9563 109.294 15.8034 109.308 16.6492C109.318 17.0974 109.172 17.2131 108.749 17.1842C108.205 17.1505 107.661 17.1649 107.117 17.1842C106.815 17.1938 106.689 17.1023 106.709 16.7938C106.728 16.4853 106.728 16.1769 106.709 15.8684C106.626 14.3647 106.028 13.1261 104.051 13.2659C103.831 13.2822 103.611 13.2785 103.391 13.2749C103.222 13.272 103.053 13.2692 102.884 13.2755C102.578 13.2851 102.549 13.1839 102.695 12.9478C102.792 12.7937 102.883 12.6348 102.974 12.4759L102.975 12.475C103.066 12.3161 103.157 12.1572 103.254 12.0031L103.257 11.9978C103.498 11.6151 103.616 11.4282 103.578 11.2799C103.543 11.1384 103.365 11.0321 103.019 10.8244L102.967 10.7934C102.627 10.591 102.452 10.644 102.209 10.9428C101.845 11.3947 101.546 11.8871 101.247 12.3796C101.147 12.5438 101.048 12.708 100.946 12.8707C100.562 13.4731 100.581 13.9213 101.072 14.4274C101.295 14.6587 101.495 14.7792 101.815 14.7648C102.069 14.7522 102.322 14.7554 102.576 14.7585C102.808 14.7614 103.041 14.7643 103.273 14.7551C104.721 14.6925 105.134 14.6973 105.095 16.601L105.095 16.6082L105.095 16.6185C105.095 16.6256 105.095 16.6326 105.094 16.6396C105.093 16.6653 105.092 16.691 105.095 16.7167C105.168 17.1167 104.969 17.189 104.605 17.189C103.411 17.1787 102.217 17.1806 101.023 17.1826ZM88.2873 15.507V15.854C88.2873 15.8845 88.2902 15.916 88.2931 15.9474C88.2994 16.0151 88.3056 16.0824 88.2824 16.1383C88.23 16.2556 88.2616 16.4083 88.2931 16.5606C88.3522 16.8464 88.4109 17.1305 87.9131 17.1745C86.4408 17.3047 85.9305 17.0444 85.7848 16.1865C85.5807 15.0009 86.0034 14.4997 87.2231 14.4708C87.9325 14.4547 88.2873 14.8001 88.2873 15.507ZM125.154 17.1842H124.401V17.1794C123.259 17.1794 123.254 17.1794 123.22 16.0323C123.213 15.847 123.23 15.659 123.248 15.4724C123.254 15.4115 123.259 15.3506 123.264 15.2901C123.268 15.2427 123.271 15.1948 123.274 15.1473C123.293 14.8075 123.311 14.4823 123.857 14.4611C124.717 14.4274 125.213 14.625 125.383 15.1937C125.503 15.6025 125.497 16.0216 125.49 16.4416C125.488 16.596 125.486 16.7505 125.49 16.9047C125.494 17.1456 125.353 17.1842 125.154 17.1842ZM141.783 18.606H161.428L161.443 18.6108C162.561 18.6108 163.678 18.6107 164.796 18.6105H164.804C170.388 18.6098 175.97 18.6092 181.555 18.6252C182.07 18.6252 182.202 18.4903 182.192 17.9842C182.167 16.5461 182.171 15.1053 182.175 13.6658V13.6506C182.176 13.1317 182.177 12.613 182.177 12.0947C182.177 11.529 182.177 11.2495 182.036 11.1113C181.898 10.9764 181.626 10.9765 181.087 10.9766L181.045 10.9766C180.671 10.9766 180.545 11.073 180.549 11.4585C180.567 12.6321 180.564 13.8083 180.561 14.9833V14.9873C180.56 15.4273 180.559 15.8676 180.559 16.307C180.559 16.895 180.263 17.189 179.67 17.189C178.867 17.189 178.457 16.7938 178.441 16.0034C178.402 14.1527 177.357 12.7743 175.676 12.4032C174.611 12.167 173.557 12.3405 172.507 12.5718L172.503 12.5729C172.047 12.6728 171.821 12.7224 171.721 12.8611C171.622 12.9974 171.645 13.2199 171.691 13.6609L171.696 13.7044C171.725 14.0081 171.822 14.09 172.133 14.0274C172.682 13.9165 173.241 13.8346 173.8 13.7816C175.306 13.6466 176.944 14.1478 176.827 16.3986C176.824 16.4757 176.825 16.5528 176.826 16.6299C176.827 16.6685 176.827 16.707 176.827 16.7456C176.828 16.7592 176.828 16.7728 176.828 16.7864L176.829 16.7938C176.835 17.0116 176.841 17.2076 176.492 17.1986C176.186 17.189 176.026 17.1697 175.962 16.7938C175.739 15.4684 174.874 14.7503 173.62 14.7648C172.42 14.7792 171.56 15.5455 171.365 16.8275C171.317 17.136 171.21 17.1938 170.928 17.1938C168.207 17.1842 165.486 17.1842 162.765 17.1938C162.425 17.1938 162.332 17.083 162.337 16.7601C162.351 16.1846 162.348 15.6115 162.345 15.0375V15.0233C162.343 14.7751 162.342 14.5268 162.342 14.278C162.342 13.6978 162.342 13.411 162.197 13.2699C162.056 13.132 161.776 13.1332 161.223 13.1356L161.181 13.1357C160.831 13.1357 160.709 13.2225 160.719 13.584C160.732 14.1729 160.731 14.7604 160.729 15.3481C160.728 15.8184 160.727 16.2887 160.734 16.7601C160.738 17.0782 160.656 17.2035 160.311 17.1938C159.572 17.1697 158.834 17.1697 158.095 17.1938C157.755 17.2035 157.662 17.083 157.667 16.7601C157.681 16.1846 157.678 15.6115 157.675 15.0375V15.0233C157.674 14.7751 157.672 14.5268 157.672 14.278C157.672 13.1307 157.672 13.1307 156.553 13.1356L156.511 13.1357C156.161 13.1357 156.04 13.2225 156.049 13.584C156.061 14.1046 156.059 14.6252 156.056 15.1452V15.1536C156.054 15.6706 156.052 16.187 156.064 16.7022C156.074 17.0733 155.976 17.1938 155.583 17.1938C152.108 17.1794 148.629 17.1794 145.15 17.1938C144.722 17.1986 144.63 17.0444 144.64 16.6589C144.653 16.0919 144.652 15.5264 144.65 14.9607V14.9589C144.649 14.5058 144.648 14.0526 144.654 13.5984C144.654 13.3044 144.611 13.155 144.261 13.1213C143.158 13.0201 142.05 12.967 140.947 13.0779C139.693 13.2032 139.183 13.7237 138.979 14.9672C138.94 15.213 138.92 15.4636 138.92 15.7142C138.886 17.8686 139.615 18.606 141.783 18.606ZM143.07 15.3479V15.8636L143.065 15.8684C143.065 15.8943 143.069 15.9213 143.072 15.9481C143.078 16.0011 143.085 16.0533 143.065 16.095C143.002 16.2167 143.036 16.3816 143.07 16.5466C143.135 16.8652 143.2 17.1843 142.57 17.1938C140.976 17.2179 140.577 16.9769 140.548 15.96C140.514 14.7696 140.859 14.4563 142.181 14.4756C142.774 14.4852 143.07 14.776 143.07 15.3479ZM174.216 16.4834C174.103 16.3299 173.921 16.2287 173.688 16.2155C173.251 16.1914 172.998 16.495 172.988 16.8902L172.988 16.8943V16.895M174.216 16.4834C174.31 16.609 174.358 16.7706 174.349 16.948C174.337 17.2486 174.165 17.2231 173.986 17.1964C173.872 17.1794 173.755 17.162 173.674 17.2276L173.674 17.2227C173.592 17.1619 173.474 17.1781 173.359 17.194C173.164 17.2208 172.976 17.2466 172.988 16.895M79.4219 15.7239L79.4219 15.7296C79.419 16.5132 79.4161 17.2956 79.4338 18.0806C79.4435 18.4614 79.3609 18.6156 78.9284 18.6156C71.7319 18.6011 64.5402 18.6011 57.3437 18.6156C56.9355 18.6156 56.7703 18.5048 56.8286 18.0999C56.848 17.9505 56.848 17.7915 56.8286 17.6372C56.7849 17.2854 56.9209 17.1649 57.2805 17.1745C57.6923 17.1862 58.104 17.1832 58.5158 17.1803C58.9593 17.1772 59.4027 17.174 59.8462 17.189C60.2495 17.2035 60.3613 17.0492 60.3127 16.6926C60.2998 16.5996 60.289 16.5058 60.2782 16.4119C60.2605 16.2578 60.2427 16.1031 60.2155 15.9504C60.0163 14.8611 59.4429 14.3888 58.3447 14.384C57.4412 14.384 57.4406 14.3793 57.3437 13.521L57.3388 13.4779C57.3048 13.1888 57.368 13.0827 57.6693 13.0201C60.2544 12.4514 61.819 13.6996 61.9308 16.4372C61.9502 16.9352 62.2159 17.1842 62.7277 17.1842C63.3532 17.1842 63.9787 17.1831 64.6042 17.182C66.2723 17.1792 67.9403 17.1763 69.6084 17.1938C70.0651 17.1938 70.1866 17.0685 70.1089 16.6396C69.9388 15.6708 70.1283 14.731 70.3373 13.7864C70.4053 13.4827 70.5559 13.3333 70.8572 13.2562C71.8339 13.0056 72.8106 12.9526 73.797 13.155C74.73 13.3478 75.1917 13.8587 75.3714 14.7792C75.4783 15.3335 75.4978 15.8877 75.4686 16.4468C75.4395 16.9528 75.7019 17.1408 76.1489 17.1842H76.2655C77.2924 17.2292 77.8059 16.7472 77.8059 15.7383C77.8059 15.3559 77.807 14.9731 77.8081 14.5902V14.5728C77.811 13.5571 77.8139 12.5403 77.7962 11.526C77.7865 11.1067 77.8837 10.9621 78.3356 10.9717L78.4072 10.9733C79.4194 10.9953 79.424 10.9954 79.424 12.0224V14.8467C79.424 15.1394 79.423 15.4317 79.4219 15.7239ZM72.8106 17.1842C72.895 17.1842 72.9794 17.1837 73.0637 17.1831C73.2316 17.182 73.3988 17.181 73.5638 17.1842C73.763 17.189 73.8456 17.1071 73.8408 16.9143C73.8376 16.75 73.8396 16.5847 73.8415 16.4192V16.4132C73.8455 16.0613 73.8496 15.7085 73.8068 15.3624C73.7193 14.678 73.2188 14.4418 72.3004 14.4659C71.6901 14.4781 71.6702 14.843 71.6499 15.2142C71.6461 15.2834 71.6423 15.3528 71.6347 15.4202C71.617 15.5568 71.6199 15.696 71.6228 15.8359C71.6239 15.8884 71.625 15.9411 71.625 15.9937C71.625 16.7906 72.0202 17.1874 72.8106 17.1842ZM40.4919 18.606H47.6593L47.669 18.6011C48.2981 18.6011 48.9276 18.6005 49.5573 18.5999H49.5752C51.483 18.5981 53.3929 18.5963 55.3028 18.6108C55.745 18.6156 55.8665 18.4903 55.8568 18.0614C55.8359 17.1559 55.8399 16.248 55.8439 15.3412V15.3277C55.8455 14.9695 55.8471 14.6115 55.8471 14.2539C55.8471 13.6842 55.8471 13.4034 55.7054 13.2651C55.5678 13.1308 55.2965 13.1308 54.7616 13.1309L54.7197 13.1309C54.3358 13.1309 54.2241 13.2418 54.2338 13.6177C54.2455 14.1064 54.2437 14.5952 54.2419 15.0834V15.0889C54.24 15.6195 54.2381 16.1495 54.2532 16.6781C54.2629 17.0926 54.1172 17.2035 53.7187 17.189C53.0384 17.1601 52.3581 17.1649 51.6778 17.189C51.3085 17.2035 51.1579 17.1023 51.1725 16.707C51.1933 16.1151 51.1893 15.5256 51.1854 14.935C51.1838 14.6986 51.1822 14.462 51.1822 14.225C51.1822 13.1211 51.1822 13.1211 50.0694 13.1305L50.0257 13.1309C49.6613 13.1357 49.5641 13.2418 49.5689 13.5936C49.5786 14.1044 49.5774 14.6153 49.5762 15.1255V15.1308C49.575 15.6393 49.5738 16.1474 49.5835 16.654C49.5884 17.03 49.5155 17.1986 49.0781 17.1938C47.3871 17.1697 45.6961 17.1745 44.0051 17.1938C43.6212 17.1986 43.5095 17.083 43.5192 16.707C43.5327 16.1291 43.5312 15.5527 43.5297 14.9761V14.9751C43.5285 14.5135 43.5273 14.0515 43.5338 13.5888C43.5386 13.29 43.4755 13.1598 43.1353 13.1261C42.0323 13.0201 40.9244 12.9719 39.8213 13.0731C38.6259 13.1839 38.0428 13.6948 37.8582 14.7744C37.7367 15.4925 37.7416 16.2299 37.8825 16.9528C38.0526 17.8204 38.5676 18.3409 39.452 18.5192C39.797 18.5915 40.142 18.606 40.4919 18.606ZM41.8865 15.3383V15.854C41.8865 15.8847 41.8899 15.917 41.8934 15.9491C41.9008 16.0177 41.9081 16.0858 41.8816 16.1383C41.8252 16.2553 41.859 16.4099 41.8927 16.5639C41.9547 16.8475 42.0163 17.1291 41.5123 17.1697C40.0157 17.295 39.5443 17.0396 39.4131 16.1528C39.2285 14.9142 39.6464 14.4756 41.0021 14.4756C41.5917 14.4788 41.8865 14.7664 41.8865 15.3383ZM4.7063 15.3007C4.70936 14.7222 4.71241 14.1446 4.69881 13.5647C4.68909 13.2369 4.796 13.0972 5.13128 13.1406C5.17016 13.147 5.20903 13.1448 5.24791 13.1427C5.26734 13.1416 5.28678 13.1406 5.30622 13.1406C5.80812 13.1406 6.05715 13.1406 6.18377 13.2639C6.30845 13.3853 6.31444 13.6264 6.3263 14.1048L6.32665 14.1189C6.32665 14.1522 6.32085 14.1894 6.31494 14.2274C6.29856 14.3325 6.28141 14.4427 6.38497 14.4852C6.49864 14.5303 6.56504 14.4289 6.62563 14.3363C6.64275 14.3102 6.6594 14.2847 6.67652 14.2635C7.53174 13.2755 8.60077 12.861 9.89819 13.0634C10.9624 13.2321 11.7155 14.09 11.7884 15.3142C11.8231 15.8959 11.82 16.4793 11.8169 17.0633C11.8147 17.4615 11.8126 17.8605 11.8224 18.259C11.8319 18.6064 11.6385 18.6062 11.3993 18.606L6.7737 18.606C6.74237 18.606 6.7104 18.6038 6.67861 18.6017C6.51326 18.5907 6.35283 18.58 6.31208 18.871C6.10313 20.2784 5.50544 20.9242 4.14486 21.1844C3.41598 21.3242 2.67251 21.329 1.94849 21.1411C0.660794 20.8085 -0.0437939 19.8735 0.00479839 18.5626C0.0327821 17.8965 0.151415 17.2428 0.270066 16.5891C0.31624 16.3347 0.362417 16.0802 0.403255 15.8251C0.442129 15.5889 0.549032 15.4829 0.826008 15.4781C2.01652 15.4636 2.06511 15.5118 1.84645 16.6444C1.7444 17.1745 1.6618 17.7047 1.58405 18.2349C1.46743 19.0831 2.01166 19.7193 2.90576 19.7819C4.0088 19.8639 4.68909 19.3723 4.69881 18.471C4.70529 17.9314 4.70313 17.3939 4.70098 16.8557C4.69989 16.5864 4.69881 16.3168 4.69881 16.0468H4.70367C4.70367 15.7981 4.70499 15.5498 4.7063 15.3017V15.3007ZM8.2995 17.1842C8.47461 17.1842 8.64919 17.1837 8.82358 17.1831C9.17182 17.182 9.51935 17.181 9.86903 17.1842C10.0974 17.1842 10.2432 17.1456 10.2383 16.8757C10.236 16.7688 10.2365 16.6613 10.237 16.5536C10.2386 16.2197 10.2402 15.8843 10.1557 15.56C9.90305 14.5913 9.07698 14.2057 8.18288 14.678C7.32766 15.131 6.798 15.8925 6.36553 16.7167C6.20031 17.0396 6.34609 17.2035 6.72997 17.189C7.08978 17.1723 7.45192 17.1764 7.81478 17.1805C7.97626 17.1824 8.13788 17.1842 8.2995 17.1842ZM29.8723 15.7274L29.8723 15.7263C29.8734 15.4221 29.8745 15.1177 29.8745 14.813L29.8842 14.8226V12.1092C29.8842 11.5426 29.8842 11.2667 29.7449 11.1288C29.6127 10.9979 29.355 10.9914 28.8525 10.9786L28.7714 10.9766C28.2952 10.9669 28.2418 11.1452 28.2418 11.5453C28.2491 12.4102 28.2491 13.2763 28.2491 14.1423V14.1437C28.2491 15.0098 28.2491 15.8759 28.2564 16.7408C28.2612 17.0878 28.1689 17.2035 27.8044 17.1986C26.4633 17.1794 25.1221 17.1794 23.781 17.1986C23.4117 17.2035 23.3194 17.0733 23.3291 16.7311C23.3427 16.1645 23.3396 15.6003 23.3366 15.0351C23.3353 14.7926 23.334 14.55 23.334 14.3069V14.2926C23.334 13.6821 23.334 13.3773 23.1803 13.2333C23.0271 13.0897 22.7211 13.1062 22.1099 13.139L22.0803 13.1406C21.8033 13.155 21.711 13.2321 21.7158 13.5068C21.7223 13.9147 21.7202 14.3247 21.718 14.7355C21.7169 14.9411 21.7158 15.1469 21.7158 15.3527C21.7158 15.7192 21.7164 16.0851 21.7169 16.4509V16.4635C21.718 17.1903 21.7191 17.9163 21.7158 18.6445C21.711 19.4831 21.6138 19.6036 20.7974 19.7916C20.6322 19.8301 20.5691 19.8976 20.5691 20.0567V20.982C20.5691 21.0977 20.5885 21.1893 20.7294 21.2423C21.4389 21.5122 22.4836 21.1555 22.8869 20.4952C23.1444 20.0711 23.2659 19.5988 23.2854 19.1217C23.2999 18.6879 23.4652 18.5915 23.883 18.5963C24.9217 18.6099 25.9603 18.6097 26.999 18.6095C27.8068 18.6094 28.6147 18.6093 29.4226 18.6156C29.7773 18.6156 29.8939 18.524 29.8842 18.1626C29.8665 17.3498 29.8694 16.5396 29.8723 15.7283V15.7274ZM13.1798 13.793L13.1798 13.7923C13.1817 12.9953 13.1837 12.1991 13.1733 11.4007C13.1733 11.0778 13.2705 10.9766 13.6009 10.9717L13.6438 10.9707C14.2233 10.9568 14.515 10.9498 14.6619 11.0908C14.8109 11.2338 14.8109 11.529 14.8109 12.1236C14.8109 12.5286 14.812 12.9339 14.813 13.3394V13.3505C14.8159 14.4421 14.8188 15.5349 14.8011 16.6251C14.7963 17.03 14.8643 17.242 15.3357 17.1842C15.5634 17.1581 15.8188 17.1859 16.0693 17.2132C16.5137 17.2615 16.9425 17.3082 17.1725 17.0492C17.3923 16.8005 17.3499 16.3181 17.3078 15.8404C17.2904 15.6425 17.2731 15.4453 17.2745 15.266C17.2794 14.6684 17.2842 14.0707 17.2745 13.4779C17.2696 13.2369 17.3474 13.155 17.6001 13.1357L17.6285 13.1335C18.2556 13.0844 18.5716 13.0596 18.7309 13.2042C18.8926 13.3512 18.8926 13.6729 18.8926 14.3214C18.8926 14.6631 18.8915 15.0053 18.8905 15.3476V15.3594C18.8876 16.2826 18.8847 17.207 18.9023 18.1288C18.9072 18.5096 18.7954 18.6204 18.4067 18.6156C16.8129 18.5963 15.219 18.5963 13.6252 18.6156C13.2656 18.6156 13.1587 18.5144 13.1636 18.1577C13.1782 17.309 13.1763 16.4575 13.1745 15.6053V15.6036L13.1745 15.6024C13.1739 15.3184 13.1733 15.0344 13.1733 14.7503H13.1782C13.1782 14.4309 13.179 14.1118 13.1798 13.793ZM33.0217 15.7179C33.0225 15.4032 33.0233 15.0886 33.0233 14.7744H33.0184V12.0658C33.0184 11.5202 33.0184 11.2526 32.8834 11.1186C32.7535 10.9896 32.4987 10.9841 31.9988 10.9732L31.9299 10.9717C31.4732 10.9621 31.3906 11.1163 31.3906 11.5308C31.4051 13.0163 31.4033 14.4991 31.4015 15.9833C31.4009 16.4782 31.4003 16.9732 31.4003 17.4685C31.4003 18.0527 31.4003 18.3407 31.5456 18.4826C31.6869 18.6206 31.9654 18.6205 32.5148 18.6204L32.5568 18.6204C32.9649 18.6204 33.033 18.471 33.0281 18.1192C33.0177 17.3254 33.0197 16.5292 33.0217 15.7341V15.7179ZM185.329 15.792C185.327 16.5887 185.325 17.3865 185.336 18.1818C185.336 18.4951 185.263 18.6108 184.918 18.6156L184.875 18.6165C184.295 18.6281 184.003 18.634 183.856 18.4924C183.708 18.3492 183.708 18.0551 183.708 17.4637C183.708 16.9285 183.709 16.3936 183.71 15.8589V15.8455C183.713 14.4251 183.716 13.0057 183.698 11.5838C183.693 11.1115 183.805 10.9525 184.301 10.9717L184.382 10.9744C185.326 11.0047 185.326 11.0047 185.326 12.0128V14.837H185.331C185.331 15.1517 185.33 15.4667 185.329 15.7819V15.792ZM132.606 13.8941V13.9009C132.605 14.1971 132.603 14.4932 132.603 14.7889H132.599V17.6131C132.599 18.5825 132.603 18.5827 133.526 18.6129L133.609 18.6156C134.1 18.6301 134.222 18.4758 134.217 18.0035C134.199 16.5696 134.202 15.1332 134.205 13.6961V13.687C134.206 13.1467 134.207 12.6062 134.207 12.0658C134.207 11.5169 134.207 11.247 134.071 11.1125C133.939 10.9823 133.679 10.979 133.169 10.9726L133.099 10.9717C132.671 10.9669 132.584 11.1163 132.594 11.5019C132.611 12.2978 132.608 13.0968 132.606 13.8941ZM50.3464 10.7308C49.8378 10.7308 49.5835 10.983 49.5835 11.4874H49.5786C49.5808 11.622 49.5796 11.7341 49.5786 11.8275C49.5761 12.066 49.5748 12.1831 49.6333 12.2422C49.6898 12.2992 49.802 12.302 50.0225 12.3077C50.0965 12.3095 50.1828 12.3117 50.2832 12.3164C50.7983 12.3357 51.1676 12.3453 51.1044 11.6272C51.0991 11.562 51.0945 11.5015 51.0902 11.4454C51.0358 10.7349 51.0355 10.7308 50.3464 10.7308ZM9.23713 11.7592C9.23948 12.0396 9.24064 12.1783 9.17121 12.2462C9.10324 12.3126 8.96762 12.3111 8.6992 12.3082C8.63663 12.3075 8.56684 12.3068 8.48901 12.3068C8.40787 12.3068 8.3353 12.3075 8.27041 12.3082C7.99141 12.3111 7.85425 12.3126 7.788 12.2455C7.72414 12.1809 7.72595 12.0526 7.7295 11.8006C7.73079 11.7088 7.73231 11.6006 7.73097 11.473C7.7265 10.7893 7.73439 10.7885 8.38899 10.7286C8.445 10.7235 8.50574 10.7179 8.57162 10.7115C9.32147 10.6395 9.27662 11.0452 9.23785 11.396L9.23733 11.4007C9.2353 11.5405 9.23629 11.6589 9.23713 11.7592ZM142.924 12.3453C143.614 12.3212 143.639 12.0224 143.551 11.526C143.668 11.0055 143.561 10.7452 142.905 10.7452C142.273 10.7452 142.225 11.0103 142.249 11.4971C142.252 11.5564 142.252 11.615 142.252 11.6719V11.6774C142.253 12.0617 142.254 12.3704 142.924 12.3453ZM41.109 11.5935C41.0118 11.0585 41.0458 10.7693 41.731 10.7404C42.3927 10.7158 42.3962 11.0193 42.4005 11.3925C42.4013 11.4578 42.4021 11.5253 42.4064 11.5935C42.4356 12.0851 42.3773 12.3501 41.7504 12.3405C41.109 12.3309 40.9632 12.0995 41.1139 11.5935H41.109ZM40.1372 10.7404C39.5152 10.7597 39.3354 10.9476 39.4569 11.4489C39.4548 11.5015 39.4515 11.5534 39.4484 11.6039C39.4223 12.0204 39.4018 12.3491 40.0691 12.3405C40.7106 12.3309 40.8126 12.1043 40.7689 11.5742C40.7631 11.5013 40.7626 11.4285 40.7622 11.3581C40.7601 11.0139 40.7583 10.7244 40.1372 10.7404ZM17.9256 20.1145C18.052 20.6447 17.8722 20.8326 17.2502 20.8471C16.6244 20.8636 16.6183 20.5746 16.6106 20.2119C16.6094 20.1523 16.608 20.0903 16.6039 20.0277C16.5699 19.4976 16.6622 19.2662 17.3085 19.2614C18.0195 19.2614 17.9801 19.6194 17.9275 20.0979L17.9256 20.1145ZM86.0374 12.3068C86.7615 12.5333 87.1405 12.273 87.1405 11.4923C87.0948 11.4225 87.1152 11.3245 87.1364 11.2224C87.1739 11.0423 87.2139 10.8497 86.8975 10.779C86.0472 10.591 85.8528 10.7549 85.8528 11.6031V12.061C85.8528 12.1911 85.8965 12.2634 86.0374 12.3068ZM88.7586 11.5115C88.8266 11.9983 88.8461 12.3212 88.1463 12.3405C87.4836 12.3613 87.4835 12.0553 87.4833 11.6798C87.4833 11.6203 87.4833 11.559 87.4806 11.4971C87.4563 11.0199 87.4806 10.7452 88.122 10.7452C88.7829 10.7452 88.8752 11.0103 88.7635 11.5115H88.7586ZM162.308 20.8326C162.969 20.8182 163.051 20.5627 162.935 20.0133H162.93C163.09 19.4976 162.925 19.2855 162.298 19.2711C161.647 19.2566 161.647 19.5651 161.662 20.0277C161.663 20.0768 161.664 20.125 161.664 20.172V20.1731C161.667 20.5501 161.669 20.8455 162.308 20.8326ZM161.331 20.1386C161.414 20.5483 161.346 20.8182 160.68 20.8326C160.049 20.8453 160.043 20.5613 160.034 20.1888V20.188C160.033 20.1361 160.032 20.0825 160.029 20.0277C160 19.5072 160.068 19.2036 160.724 19.2807C160.76 19.2848 160.794 19.2884 160.826 19.2918C161.323 19.345 161.331 19.346 161.331 20.1386ZM93.5984 20.7941C94.2884 21.0302 94.716 20.7507 94.716 20.047V20.0422C94.714 19.9276 94.7148 19.8309 94.7154 19.7492V19.7486C94.717 19.5277 94.7178 19.4166 94.6624 19.3593C94.6067 19.3018 94.4941 19.2983 94.2685 19.2913C94.1918 19.289 94.1019 19.2862 93.9969 19.2807C93.5401 19.2566 93.3603 19.3916 93.4235 19.8494C93.4475 20.0092 93.4424 20.1714 93.4374 20.3343C93.4353 20.4023 93.4332 20.4705 93.4332 20.5386C93.4332 20.6543 93.4526 20.7459 93.5984 20.7941ZM93.0687 20.0422C93.0687 20.7459 92.6071 21.035 91.956 20.7989C91.8102 20.7459 91.8005 20.6495 91.8005 20.5338V20.0759C91.8005 19.3048 92.0677 19.0927 92.8452 19.3096C93.14 19.3897 93.1039 19.5837 93.0696 19.7675C93.0502 19.8714 93.0315 19.9721 93.0736 20.047L93.0687 20.0422ZM18.9266 20.8278C19.5535 20.8037 19.6507 20.5675 19.5632 20.1434C19.5632 20.0728 19.5663 20.0034 19.5693 19.9364C19.5869 19.5469 19.6007 19.2416 18.9704 19.2663C18.3727 19.2903 18.2463 19.4783 18.2998 19.9988C18.308 20.0774 18.3087 20.1566 18.3093 20.2331C18.3122 20.5647 18.3147 20.8474 18.9266 20.8278ZM56.4642 20.0518C56.5808 20.5724 56.4836 20.8182 55.8276 20.8326C55.1901 20.8453 55.1893 20.5554 55.1882 20.1799C55.1881 20.129 55.1879 20.0764 55.1862 20.0229C55.1716 19.5506 55.1862 19.2711 55.8276 19.2711C56.4836 19.2711 56.5808 19.5361 56.4642 20.0518ZM54.2241 19.2662C53.5632 19.2807 53.4757 19.5361 53.5875 20.0567L53.5924 20.0615C53.466 20.5868 53.5875 20.8326 54.2338 20.8326C54.8801 20.8326 54.8752 20.5338 54.8655 20.0759C54.8644 20.026 54.8646 19.977 54.8648 19.9294C54.8662 19.549 54.8673 19.2534 54.2241 19.2662ZM141.263 12.3116C141.937 12.302 141.923 11.9756 141.865 11.505C141.977 11.005 141.83 10.7982 141.229 10.779C140.633 10.7577 140.638 11.0476 140.644 11.3907C140.645 11.4367 140.646 11.4836 140.645 11.5308C140.645 11.5595 140.644 11.5878 140.643 11.6157C140.631 12.0133 140.622 12.3161 141.263 12.3116Z" fill="#1D1D1B" fill-opacity="0.65"/>
</svg>
